<?xml version="1.0" encoding="UTF-8"?>
<svg version="1.1" xmlns="http://www.w3.org/2000/svg" width="1514" height="553">
<path d="M0 0 C8.15547849 0.07997745 13.62989178 3.27640505 20.3828125 7.5 C21.59912565 8.23114113 22.81710219 8.95952131 24.03662109 9.68530273 C26.55195083 11.18800805 29.0570714 12.7058312 31.5546875 14.23779297 C36.18345361 17.07406154 40.85925453 19.82792634 45.53491211 22.58618164 C48.89642425 24.57053523 52.25119631 26.5659383 55.60546875 28.5625 C66.42555695 34.98519541 77.34638088 41.23425805 88.2578125 47.5 C102.61201718 55.7427078 116.91899849 64.05342087 131.14550781 72.51489258 C139.95577261 77.74749787 148.81623861 82.88811357 157.69921875 87.99609375 C165.88670099 92.70439165 174.04953069 97.45337757 182.2019043 102.22216797 C187.44868248 105.28815802 192.7049654 108.33622603 197.9765625 111.359375 C199.10835938 112.0090625 200.24015625 112.65875 201.40625 113.328125 C203.54535208 114.55474298 205.68583889 115.77895143 207.828125 117 C209.8112452 118.13760383 211.77846639 119.30348386 213.72677708 120.49972534 C216.1904991 121.96719336 218.64585192 123.08760731 221.31008053 124.14309692 C225.98298379 126.19198213 230.06861496 128.42701355 233.2578125 132.5 C236.34290575 140.60841269 235.45468685 149.92260048 235.34399414 158.4453125 C235.36732831 161.1106435 235.39687404 163.77525837 235.43382263 166.44036865 C235.50862839 172.91500781 235.49725699 179.38671112 235.4542454 185.86153173 C235.4207726 191.12557367 235.41834216 196.38878739 235.43780327 201.65289307 C235.44054372 202.4035492 235.44328417 203.15420532 235.44610767 203.92760861 C235.45179587 205.4528002 235.45754899 206.97799155 235.46336632 208.50318265 C235.51410217 222.78804824 235.46618607 237.07128326 235.38477635 251.35592198 C235.31737869 263.5995261 235.33682473 275.84050514 235.41918945 288.08398438 C235.51492521 302.31937043 235.55496882 316.55317095 235.50804228 330.7888546 C235.5031974 332.3082718 235.49843033 333.82768924 235.49374199 335.34710693 C235.49025044 336.46832843 235.49025044 336.46832843 235.48668836 337.61220086 C235.47418885 342.86690838 235.50138341 348.12054213 235.54426765 353.37506104 C235.5955701 359.78407928 235.58601642 366.18960557 235.49954707 372.59830141 C235.45697833 375.86667592 235.45030336 379.12795802 235.4996376 382.39641571 C235.76264351 401.50409092 235.76264351 401.50409092 231.58270907 406.50351143 C227.56064297 409.82684846 223.16120008 411.88318141 218.30058944 413.69695663 C215.42777426 414.82629931 212.87747529 416.38524841 210.26171875 418.01171875 C208.4481847 419.07077163 206.63438014 420.12936139 204.8203125 421.1875 C203.81718018 421.77289551 202.81404785 422.35829102 201.78051758 422.96142578 C194.35054409 427.29236738 186.90032203 431.58734262 179.4453125 435.875 C170.54884938 440.99287568 161.70134565 446.18657491 152.8828125 451.4375 C142.49743025 457.61909609 132.04020213 463.65853218 121.53662109 469.63598633 C111.04116086 475.61024791 100.60633723 481.68492884 90.18457031 487.78662109 C85.25273181 490.67381184 80.3182107 493.55639926 75.3828125 496.4375 C74.39547119 497.0140332 73.40812988 497.59056641 72.39086914 498.18457031 C65.09141013 502.44224293 57.77063066 506.66201888 50.4453125 510.875 C39.96275448 516.90586501 29.54359734 523.03788516 19.15112305 529.22216797 C17.07839164 530.45552101 15.00298435 531.68439363 12.92431641 532.90771484 C11.31516159 533.86861099 9.71884278 534.8521968 8.14990234 535.87744141 C5.36541907 537.65741035 3.74866494 538.53903983 0.40307617 538.27294922 C-2.89595939 537.46221053 -5.25219841 536.33613474 -8.171875 534.61328125 C-9.71681641 533.71125977 -9.71681641 533.71125977 -11.29296875 532.79101562 C-12.38996094 532.13810547 -13.48695313 531.48519531 -14.6171875 530.8125 C-15.77942159 530.12996236 -16.94219128 529.44833598 -18.10546875 528.76757812 C-20.49472254 527.36758818 -22.88094371 525.96263956 -25.26464844 524.55322266 C-29.43991951 522.08541391 -33.63000469 519.64323578 -37.82080078 517.2019043 C-39.78082289 516.06005956 -41.74012456 514.91697732 -43.69873047 513.77270508 C-51.03153427 509.48893034 -58.38333811 505.23885021 -65.7421875 501 C-79.09234415 493.30882531 -92.39951878 485.5451704 -105.70117188 477.77050781 C-108.67284255 476.03393164 -111.64488124 474.29798808 -114.6171875 472.5625 C-115.60436768 471.98604736 -116.59154785 471.40959473 -117.60864258 470.81567383 C-124.90830099 466.55798345 -132.22919356 462.33803948 -139.5546875 458.125 C-148.45115811 453.00713788 -157.29865464 447.81342492 -166.1171875 442.5625 C-176.36528416 436.46261915 -186.67595661 430.48764182 -197.05029297 424.60571289 C-199.18609514 423.39316767 -201.30715875 422.15432933 -203.41345215 420.89122009 C-206.72144784 418.97695078 -210.10828464 417.45398884 -213.61734009 415.94299316 C-229.5916722 408.59645699 -229.5916722 408.59645699 -233.14932442 401.81958389 C-235.40182907 394.09746111 -235.01172244 386.12968033 -234.84765625 378.1640625 C-234.88022658 375.5042505 -234.92211017 372.84604046 -234.97509766 370.18670654 C-235.08130356 363.73944165 -235.05903743 357.29891281 -234.98919427 350.85139418 C-234.9347701 345.60815537 -234.92773203 340.3667929 -234.95376587 335.12335205 C-234.95744346 334.37439277 -234.96112105 333.6254335 -234.96491009 332.85377848 C-234.97258426 331.33181566 -234.9803654 329.80985336 -234.98825228 328.28789163 C-235.05653561 314.04784452 -234.97826152 299.81151743 -234.84904349 285.57208085 C-234.74181599 273.37887538 -234.76044547 261.19115343 -234.87109375 248.99804688 C-234.99982275 234.80605405 -235.04994569 220.61731327 -234.97639942 206.42481804 C-234.96875504 204.90876184 -234.96121012 203.39270514 -234.95376587 201.87664795 C-234.95006326 201.13090975 -234.94636064 200.38517156 -234.94254583 199.61683524 C-234.92190576 194.38562214 -234.95661119 189.15648886 -235.01327515 183.92559814 C-235.08093008 177.54032778 -235.06174847 171.16212124 -234.93453729 164.77765131 C-234.87179873 161.52270732 -234.85907009 158.2817812 -234.92611694 155.02657318 C-235.22204791 139.19305122 -235.22204791 139.19305122 -231.7421875 132.5 C-225.91996806 126.55127352 -218.44479016 123.22931333 -210.90894508 119.95210648 C-205.62554123 117.52941868 -200.71433232 114.49716106 -195.7421875 111.5 C-193.74383646 110.33051112 -191.74402308 109.16351426 -189.7421875 108 C-188.2571875 107.13375 -188.2571875 107.13375 -186.7421875 106.25 C-183.7421875 104.5 -180.7421875 102.75 -177.7421875 101 C-176.2574292 100.13387085 -176.2574292 100.13387085 -174.74267578 99.25024414 C-172.74109539 98.08268272 -170.73946773 96.91520236 -168.73779297 95.74780273 C-163.76158358 92.84548584 -158.78618295 89.94180084 -153.8125 87.03515625 C-143.53686193 81.03222941 -133.24580187 75.05812212 -122.9296875 69.125 C-113.9934872 63.98337735 -105.10307749 58.77029438 -96.2421875 53.5 C-86.30567591 47.58994568 -76.32314149 41.76706418 -66.30078125 36.00390625 C-58.12440337 31.30199403 -49.97297309 26.55889533 -41.83105469 21.79760742 C-36.39601168 18.62234577 -30.95208714 15.46329948 -25.49609375 12.32421875 C-24.89364838 11.97747101 -24.291203 11.63072327 -23.67050171 11.27346802 C-20.73279823 9.58303604 -17.79393524 7.89469183 -14.85351562 6.20898438 C-13.80744141 5.60763672 -12.76136719 5.00628906 -11.68359375 4.38671875 C-10.75232666 3.85264404 -9.82105957 3.31856934 -8.86157227 2.76831055 C-5.42716823 0.7130486 -4.26206551 0.20414024 0 0 Z " fill="#0D3A65" transform="translate(263.7421875,-0.5)"/>
<path d="M0 0 C9.89028645 20.81919491 19.73414642 41.65656354 29.41259766 62.57519531 C31.95006888 68.0497641 34.50201418 73.51756149 37.05496216 78.98492432 C37.93328641 80.86597602 38.81128032 82.74718161 39.68920898 84.62841797 C42.3755161 90.38386238 45.06407481 96.13823992 47.75764465 101.89028931 C58.9885848 125.87473173 58.9885848 125.87473173 64.375 137.75 C64.75052002 138.57193848 65.12604004 139.39387695 65.51293945 140.24072266 C68 145.76285033 68 145.76285033 68 148 C50.51 148 33.02 148 15 148 C10.05 137.11 5.1 126.22 0 115 C-31.35 114.67 -62.7 114.34 -95 114 C-96.485 118.455 -96.485 118.455 -98 123 C-98.85123059 125.04694016 -99.73611979 127.08042442 -100.6640625 129.09375 C-101.14617188 130.14304687 -101.62828125 131.19234375 -102.125 132.2734375 C-102.8675 133.87058594 -102.8675 133.87058594 -103.625 135.5 C-104.12773438 136.59570312 -104.63046875 137.69140625 -105.1484375 138.8203125 C-108.85825893 146.85825893 -108.85825893 146.85825893 -110 148 C-111.62674778 148.09340434 -113.25754051 148.11745171 -114.88696289 148.11352539 C-115.92796646 148.11344986 -116.96897003 148.11337433 -118.04151917 148.11329651 C-119.1737944 148.10813522 -120.30606964 148.10297394 -121.47265625 148.09765625 C-123.20182533 148.09553383 -123.20182533 148.09553383 -124.96592712 148.09336853 C-128.66481064 148.08775005 -132.36363464 148.07519442 -136.0625 148.0625 C-138.56315017 148.05748738 -141.06380129 148.05292406 -143.56445312 148.04882812 C-149.70965588 148.03777462 -155.85482369 148.02101852 -162 148 C-161.19325628 143.47620825 -159.59679005 139.66619081 -157.60546875 135.55078125 C-157.26199905 134.82916306 -156.91852936 134.10754486 -156.56465149 133.36405945 C-155.82708705 131.81585574 -155.08703209 130.26883652 -154.34472656 128.72290039 C-152.78288988 125.46973297 -151.23343853 122.21072359 -149.6835022 118.95187378 C-148.90167761 117.3081424 -148.11926689 115.66468969 -147.33627319 114.02151489 C-144.00938352 107.03628589 -140.73652827 100.02762869 -137.5 93 C-137.02618896 91.97124756 -136.55237793 90.94249512 -136.06420898 89.88256836 C-131.65329682 80.28034593 -127.31178885 70.64708314 -123 61 C-133.10496872 62.35207328 -143.18095894 63.84129014 -153.234375 65.53515625 C-154.03643372 65.67020569 -154.83849243 65.80525513 -155.66485596 65.94439697 C-159.71821155 66.62871396 -163.77029198 67.31992905 -167.82128906 68.01806641 C-169.33918207 68.27642969 -170.85708528 68.53473305 -172.375 68.79296875 C-173.07010681 68.91470963 -173.76521362 69.0364505 -174.48138428 69.16188049 C-178.09764769 69.7737619 -181.29643808 70 -185 70 C-185 95.74 -185 121.48 -185 148 C-201.17 148 -217.34 148 -234 148 C-234 125.23 -234 102.46 -234 79 C-241.59 80.32 -249.18 81.64 -257 83 C-258.32 83 -259.64 83 -261 83 C-261.35771484 83.78117187 -261.35771484 83.78117187 -261.72265625 84.578125 C-263.4122586 87.7816524 -265.41666487 90.75012189 -267.4375 93.75 C-267.87779541 94.40685791 -268.31809082 95.06371582 -268.77172852 95.74047852 C-273.32494007 102.51610051 -277.95298808 109.24000799 -282.59130859 115.95751953 C-284.02853369 118.04137138 -285.46211152 120.12768622 -286.89453125 122.21484375 C-291.89515074 129.50104849 -296.91118391 136.77492323 -302 144 C-305.37950062 140.77728034 -308.10395542 137.61344388 -310.625 133.6875 C-311.30949219 132.63820313 -311.99398438 131.58890625 -312.69921875 130.5078125 C-313.06708496 129.94352539 -313.43495117 129.37923828 -313.81396484 128.79785156 C-315.97557935 125.52116789 -318.20904841 122.29392894 -320.4375 119.0625 C-320.89954834 118.39033447 -321.36159668 117.71816895 -321.83764648 117.02563477 C-324.10917139 113.72495542 -326.39353651 110.43432763 -328.703125 107.16015625 C-329.33263062 106.2638147 -329.33263062 106.2638147 -329.97485352 105.34936523 C-331.11891389 103.72252843 -332.26827482 102.09942293 -333.41796875 100.4765625 C-335 98 -335 98 -335 96 C-346.55 97.98 -358.1 99.96 -370 102 C-370.33 117.18 -370.66 132.36 -371 148 C-387.17 148 -403.34 148 -420 148 C-420 135.46 -420 122.92 -420 110 C-432.0843653 112.1158328 -432.0843653 112.1158328 -444.16601562 114.24707031 C-452.31714065 115.69078686 -460.46432514 117.10345355 -468.65625 118.296875 C-484.84719805 120.49090704 -484.84719805 120.49090704 -499.12109375 127.8828125 C-512.02444323 137.37211429 -527.98817738 142.18323684 -543.5 145.25 C-544.72626099 145.49508301 -544.72626099 145.49508301 -545.97729492 145.74511719 C-559.54455108 148.23920563 -573.34733869 148.14333521 -587.08984375 148.09765625 C-588.77234352 148.09578534 -590.45484384 148.09436463 -592.13734436 148.09336853 C-596.51180594 148.08959625 -600.88623298 148.07981284 -605.26068115 148.06866455 C-610.53815752 148.05651084 -615.81564559 148.05202295 -621.09313202 148.04621124 C-629.06211185 148.03659688 -637.03101627 148.01740375 -645 148 C-645 134.8 -645 121.6 -645 108 C-640.05538186 106.58725196 -635.55314387 105.4880038 -630.5282135 104.65040588 C-629.80638215 104.52894371 -629.08455079 104.40748153 -628.34084576 104.28233868 C-625.93105942 103.8778433 -623.52035815 103.47909737 -621.10961914 103.08032227 C-619.36459725 102.78861345 -617.61963556 102.49654428 -615.87472916 102.20414543 C-612.09494624 101.57156686 -608.31474602 100.9415644 -604.53420448 100.31353569 C-598.43280336 99.29996097 -592.33234328 98.28079757 -586.23197937 97.26100159 C-577.44562223 95.79278359 -568.65881784 94.32726919 -559.8717041 92.86358643 C-545.96290234 90.54666909 -532.05506388 88.22400368 -518.14746094 85.89990234 C-516.40677491 85.60902276 -516.40677491 85.60902276 -514.63092351 85.31226683 C-509.93114999 84.52689268 -505.23138042 83.7414949 -500.53162348 82.95602155 C-493.43560186 81.77006567 -486.33951653 80.58449184 -479.24338448 79.39919686 C-450.08947268 74.52930959 -420.93830213 69.64363468 -391.79296875 64.72265625 C-390.964204 64.58272617 -390.13543925 64.44279609 -389.28156042 64.29862571 C-379.49914098 62.6468069 -369.7169574 60.9935939 -359.93488634 59.33971339 C-344.68472642 56.76133041 -329.43424029 54.18487801 -314.18359375 51.609375 C-313.39120127 51.47554987 -312.59880879 51.34172474 -311.78240442 51.20384431 C-285.03612353 46.68688549 -258.28662683 42.18924223 -231.53515625 37.703125 C-230.62590346 37.55064505 -229.71665067 37.3981651 -228.77984476 37.24106455 C-208.94967419 33.91571118 -189.11899723 30.5933854 -169.28790164 27.27355313 C-162.44340738 26.12771604 -155.59895172 24.98164852 -148.75451899 23.83544397 C-147.08006039 23.55503095 -145.40559999 23.27462873 -143.73113775 22.99423742 C-122.1836998 19.38597061 -100.63911602 15.76151089 -79.09952354 12.10669327 C-75.3702997 11.47405616 -71.64096013 10.84210617 -67.91157532 10.2104187 C-65.55001742 9.81036905 -63.18846039 9.41031423 -60.8269043 9.01025391 C-59.69567422 8.81863363 -58.56444414 8.62701336 -57.39893436 8.42958641 C-50.94294189 7.33542022 -44.48785452 6.23610429 -38.03345966 5.13255501 C-34.20421738 4.4789455 -30.37421666 3.82987296 -26.54398537 3.18208694 C-24.81711783 2.88897975 -23.09058904 2.59386805 -21.36444664 2.29652023 C-19.04915867 1.8978326 -16.73278806 1.50616472 -14.41601562 1.11621094 C-12.50351013 0.78988678 -12.50351013 0.78988678 -10.55236816 0.45697021 C-6.99268587 -0.00094088 -3.58469332 -0.08235788 0 0 Z M-67.05273438 51.74267578 C-70.27558363 56.08088365 -71.66059536 60.82205769 -73 66 C-73.66395527 67.33468559 -74.32964586 68.66851678 -75 70 C-75 70.99 -75 71.98 -75 73 C-56.52 73 -38.04 73 -19 73 C-21.34955109 65.78900832 -21.34955109 65.78900832 -24.26171875 58.96484375 C-24.65810547 58.13662109 -25.05449219 57.30839844 -25.46289062 56.45507812 C-25.86701172 55.62427734 -26.27113281 54.79347656 -26.6875 53.9375 C-27.10322266 53.07189453 -27.51894531 52.20628906 -27.94726562 51.31445312 C-28.96010087 49.20729015 -29.9777159 47.1025906 -31 45 C-50.1174071 44.71925356 -50.1174071 44.71925356 -67.05273438 51.74267578 Z " fill="#0D3B66" transform="translate(1162,240)"/>
<path d="M0 0 C4.55127435 1.26109911 8.70842032 3.94744429 12.8125 6.25 C13.59383301 6.68618652 14.37516602 7.12237305 15.18017578 7.57177734 C22.64234535 11.75915044 30.02723703 16.07699892 37.40942383 20.40332031 C45.24254068 24.98957799 53.11307749 29.5072661 61 34 C70.72143706 39.53951839 80.40895317 45.13375194 90.06689453 50.78344727 C100.59084625 56.93766742 111.15380137 63.02369996 121.71777344 69.10888672 C127.14659942 72.23680148 132.57319281 75.36858448 138 78.5 C140.16665583 79.75001879 142.3333225 81.00001878 144.5 82.25 C157.5 89.75 157.5 89.75 160.75415039 91.62744141 C162.90692816 92.86939744 165.05975963 94.1112604 167.21264648 95.35302734 C172.24616915 98.25646913 177.27918048 101.160785 182.31021118 104.06854248 C184.08362608 105.09345403 185.85721646 106.11806123 187.63085938 107.14257812 C189.84995773 108.42452738 192.06873016 109.70704107 194.28710938 110.99023438 C200.16127054 114.382778 206.0562835 117.73072173 212 121 C210.75600097 124.7319971 209.7764468 124.97391974 206.3984375 126.8203125 C204.96141479 127.61828247 204.96141479 127.61828247 203.49536133 128.43237305 C202.46564209 128.99093994 201.43592285 129.54950684 200.375 130.125 C191.75968677 134.75663635 191.75968677 134.75663635 183.55859375 140.06640625 C174.82426225 146.26778161 174.82426225 146.26778161 170.01953125 145.5625 C166.73532473 144.0023911 163.96205015 142.10845441 161 140 C159.15973356 138.88291519 157.29632405 137.81315541 155.4284668 136.74291992 C153.28403727 135.51021076 151.15904836 134.24821111 149.03515625 132.98046875 C141.86951832 128.72207432 134.64132788 124.57079185 127.41064453 120.42407227 C122.7237053 117.73521288 118.04201528 115.04838965 113.43359375 112.2265625 C112.79381592 111.84064941 112.15403809 111.45473633 111.49487305 111.05712891 C109.90090836 110.09142762 108.31707152 109.10906001 106.734375 108.125 C103.29005099 106.70790669 101.59689111 107.15866951 98 108 C95.52001142 109.11228818 95.52001142 109.11228818 93.1484375 110.59765625 C92.22949707 111.14349365 91.31055664 111.68933105 90.36376953 112.25170898 C89.37747559 112.84927002 88.39118164 113.44683105 87.375 114.0625 C85.21433621 115.34769089 83.05284415 116.63149008 80.890625 117.9140625 C79.76205078 118.58598633 78.63347656 119.25791016 77.47070312 119.95019531 C72.31086615 123.00883161 67.09630612 125.97229882 61.88256836 128.93774414 C58.92538912 130.61987346 55.97050286 132.30601973 53.015625 133.9921875 C52.43039062 134.32607483 51.84515625 134.65996216 51.2421875 135.00396729 C40.80481364 140.96204044 30.40581503 146.98705428 20 153 C4.35487039 162.03797727 -11.30238963 171.05342445 -27 180 C-22.99349363 183.43859381 -18.80716962 185.89013487 -14.1875 188.375 C-6.78205774 192.42243736 0.53249804 196.60622099 7.8125 200.875 C18.82941623 207.33084028 29.89937872 213.68932483 41 220 C41 220.66 41 221.32 41 222 C40.20416504 222.4532666 39.40833008 222.9065332 38.58837891 223.37353516 C35.58721093 225.08356885 32.58663258 226.79462857 29.58642578 228.50634766 C28.29694081 229.24177461 27.00723366 229.97681216 25.71728516 230.71142578 C24.46424125 231.42508637 23.21153303 232.13933668 21.95916748 232.85418701 C20.72281363 233.55960132 19.48555058 234.26342454 18.24737549 234.96563721 C13.77838881 237.51250168 9.43888899 240.22340942 5.16162109 243.07958984 C2.3023154 244.29707149 0.9362765 243.94345102 -2 243 C-4.48168945 241.82348633 -4.48168945 241.82348633 -7.11328125 240.33203125 C-8.10126709 239.77588135 -9.08925293 239.21973145 -10.10717773 238.64672852 C-11.16493408 238.04143311 -12.22269043 237.4361377 -13.3125 236.8125 C-14.42117432 236.184646 -15.52984863 235.55679199 -16.67211914 234.90991211 C-26.12965658 229.53806301 -35.52701651 224.06304021 -44.91015625 218.5625 C-51.21570419 214.8678669 -57.54294436 211.21147319 -63.875 207.5625 C-65.49523071 206.62869507 -65.49523071 206.62869507 -67.14819336 205.67602539 C-69.33796334 204.41423174 -71.52782355 203.15259466 -73.71777344 201.89111328 C-79.14659942 198.76319852 -84.57319281 195.63141552 -90 192.5 C-92.16665583 191.24998121 -94.3333225 189.99998122 -96.5 188.75 C-118.16666667 176.25 -139.83333333 163.75 -161.5 151.25 C-163.11152954 150.3204248 -163.11152954 150.3204248 -164.75561523 149.37207031 C-166.90392287 148.13245688 -169.05187718 146.8922309 -171.19946289 145.65136719 C-176.28144145 142.71602317 -181.36684663 139.78714728 -186.4649353 136.87988281 C-188.87653083 135.50413209 -191.28611876 134.12488653 -193.69555664 132.74536133 C-195.3999055 131.77148182 -197.10714938 130.80267435 -198.81445312 129.83398438 C-199.84376953 129.24423828 -200.87308594 128.65449219 -201.93359375 128.046875 C-202.84165771 127.52963867 -203.74972168 127.01240234 -204.68530273 126.47949219 C-206.77350796 125.14476761 -208.34578204 123.83066332 -210 122 C-203.23385809 117.29701879 -196.21427503 113.22230179 -189 109.25 C-181.81107379 105.25824176 -174.63363437 101.26001356 -167.5625 97.0625 C-160.59230165 92.92682031 -153.58498988 88.85878933 -146.5625 84.8125 C-145.45527588 84.17449463 -144.34805176 83.53648926 -143.20727539 82.87915039 C-140.93662932 81.57110523 -138.66587642 80.26324552 -136.39501953 78.95556641 C-130.9283002 75.80667946 -125.46425113 72.65316736 -120 69.5 C-117.83334689 68.2499765 -115.66668021 66.99997653 -113.5 65.75 C-112.4275 65.13125 -111.355 64.5125 -110.25 63.875 C-48.5 28.25 -48.5 28.25 -45.24438477 26.37182617 C-43.09635954 25.13253733 -40.94840925 23.89311859 -38.80053711 22.65356445 C-33.71344451 19.71797433 -28.62558153 16.78374328 -23.5350647 13.85409546 C-21.12456252 12.46671905 -18.71448624 11.07860376 -16.30444336 9.69042969 C-14.59856032 8.70826185 -12.89206014 7.72716615 -11.18554688 6.74609375 C-10.15623047 6.153125 -9.12691406 5.56015625 -8.06640625 4.94921875 C-7.15834229 4.42674561 -6.25027832 3.90427246 -5.31469727 3.3659668 C-3.50873799 2.30022034 -1.74478871 1.16319248 0 0 Z " fill="#FD0000" transform="translate(264,277)"/>
<path d="M0 0 C0 23.43 0 46.86 0 71 C-13.86 78.92 -13.86 78.92 -28 87 C-31.96 89.31 -35.92 91.62 -40 94 C-40.33 94 -40.66 94 -41 94 C-41 86.08 -41 78.16 -41 70 C-43.36285156 71.36318359 -43.36285156 71.36318359 -45.7734375 72.75390625 C-99.5 103.75 -99.5 103.75 -102.75048828 105.62524414 C-104.91557071 106.87435518 -107.08060982 108.12354129 -109.24560547 109.37280273 C-114.68615706 112.51202309 -120.12747216 115.64990563 -125.5703125 118.78515625 C-127.75521193 120.04426459 -129.94010779 121.30337914 -132.125 122.5625 C-133.18525391 123.17295166 -134.24550781 123.78340332 -135.33789062 124.41235352 C-140.87215172 127.60282634 -146.39409569 130.81287582 -151.8984375 134.0546875 C-153.00687012 134.70622803 -154.11530273 135.35776855 -155.25732422 136.02905273 C-157.37837494 137.2773778 -159.49728476 138.52934949 -161.61376953 139.78540039 C-162.55591309 140.3396167 -163.49805664 140.89383301 -164.46875 141.46484375 C-165.71301758 142.20142212 -165.71301758 142.20142212 -166.98242188 142.95288086 C-169 144 -169 144 -171 144 C-170.67 161.49 -170.34 178.98 -170 197 C-166.24625 194.834375 -162.4925 192.66875 -158.625 190.4375 C-151.54947917 186.35546875 -144.47395833 182.2734375 -137.3984375 178.19140625 C-136.34076172 177.58119629 -135.28308594 176.97098633 -134.19335938 176.34228516 C-132.04626722 175.1036034 -129.89913107 173.86499788 -127.75195312 172.62646484 C-122.35705291 169.51445755 -116.96289412 166.40117977 -111.5703125 163.28515625 C-99.76370516 156.46497363 -87.93973 149.6767674 -76.09527588 142.92263794 C-67.06696886 137.77250009 -58.07721157 132.55940702 -49.10839844 127.30639648 C-39.98262611 121.96984323 -30.80412989 116.72733305 -21.61328125 111.50390625 C-15.65443078 108.11173177 -9.74415396 104.67061082 -3.92138672 101.04882812 C-2 100 -2 100 0 100 C0 147.52 0 195.04 0 244 C-8.25 248.62 -16.5 253.24 -25 258 C-33.89501526 263.1749698 -33.89501526 263.1749698 -42.77734375 268.37109375 C-49.44976054 272.27354668 -56.15980137 276.1093558 -62.875 279.9375 C-75.20048783 286.96561901 -87.49722356 294.04240601 -99.78222656 301.14111328 C-106.27125096 304.88978034 -112.7633695 308.63308667 -119.25488281 312.37744141 C-124.64748314 315.48818339 -130.03937822 318.60013327 -135.4296875 321.71484375 C-144.28242579 326.82869993 -153.13548754 331.94164537 -162.015625 337.0078125 C-162.60219376 337.34246017 -163.18876251 337.67710785 -163.79310608 338.02189636 C-166.15565566 339.36949067 -168.51833067 340.71686322 -170.88156128 342.06326294 C-180.45170075 347.51674964 -189.97446718 353.04670265 -199.45166016 358.66040039 C-200.37382324 359.20301514 -201.29598633 359.74562988 -202.24609375 360.3046875 C-203.04716553 360.77890137 -203.8482373 361.25311523 -204.67358398 361.74169922 C-207.06067631 363.03281831 -209.47503135 364.01197804 -212 365 C-212.20875481 355.45555526 -212.36855302 345.91189879 -212.46630955 336.36566734 C-212.5132351 331.93257259 -212.57684821 327.50104203 -212.67895508 323.06884766 C-212.7769251 318.78932022 -212.83059252 314.51129439 -212.85389519 310.23073196 C-212.87049454 308.59987365 -212.90291344 306.96909545 -212.95157051 305.33887863 C-213.31656582 292.6005086 -213.31656582 292.6005086 -210.1534729 288.75523376 C-207.82914355 287.17196019 -205.59735792 286.06585175 -203 285 C-201.93168945 284.36682861 -200.86337891 283.73365723 -199.76269531 283.08129883 C-198.31008301 282.27728638 -198.31008301 282.27728638 -196.828125 281.45703125 C-195.75175781 280.85826172 -194.67539063 280.25949219 -193.56640625 279.64257812 C-192.47199219 279.03865234 -191.37757813 278.43472656 -190.25 277.8125 C-188.04652277 276.59047866 -185.84338498 275.36784501 -183.640625 274.14453125 C-182.67672852 273.61190674 -181.71283203 273.07928223 -180.71972656 272.53051758 C-178.88049101 271.49549355 -177.06454257 270.41814414 -175.27246094 269.3034668 C-173 268 -173 268 -171 268 C-170.67 276.58 -170.34 285.16 -170 294 C-168.42476562 293.09121094 -166.84953125 292.18242187 -165.2265625 291.24609375 C-111.49999999 260.25 -111.49999999 260.25 -108.24951172 258.37475586 C-106.08442929 257.12564482 -103.91939018 255.87645871 -101.75439453 254.62719727 C-87.01782257 246.1241354 -87.01782257 246.1241354 -82.14208984 243.33251953 C-79.96946911 242.07232807 -77.81060468 240.78810709 -75.66650391 239.47998047 C-70.207882 236.18680363 -65.12237463 233.58973558 -59.03125 231.66796875 C-51.84514265 229.1000241 -45.87457948 226.90898288 -42 220 C-38.26862871 204.40061666 -40.55496405 186.80173576 -42 171 C-59.80080691 180.89108026 -59.80080691 180.89108026 -77.4140625 191.11010742 C-83.72671477 194.85224409 -90.07903766 198.52381678 -96.4375 202.1875 C-97.54472412 202.82550537 -98.65194824 203.46351074 -99.79272461 204.12084961 C-102.06337068 205.42889477 -104.33412358 206.73675448 -106.60498047 208.04443359 C-112.07169984 211.19332056 -117.53572129 214.34688036 -123 217.5 C-125.16926817 218.7513067 -127.338539 220.00260878 -129.5078125 221.25390625 C-133.81601651 223.73930902 -138.12322789 226.22641977 -142.4296875 228.71484375 C-144.57807027 229.95582391 -146.72650786 231.19670919 -148.875 232.4375 C-149.93799316 233.05149658 -151.00098633 233.66549316 -152.09619141 234.2980957 C-157.77389918 237.57402468 -163.45905341 240.83624757 -169.15625 244.078125 C-170.96465819 245.10756339 -172.77305129 246.13702827 -174.5814209 247.16653442 C-175.77019296 247.84322348 -176.95907515 248.51971913 -178.14807129 249.1960144 C-186.89656709 254.1754898 -195.56644594 259.26916901 -204.13818359 264.54760742 C-205.26474365 265.23560425 -205.26474365 265.23560425 -206.4140625 265.9375 C-207.0632666 266.33839844 -207.7124707 266.73929687 -208.38134766 267.15234375 C-210 268 -210 268 -212 268 C-212 219.49 -212 170.98 -212 121 C-202.76 115.72 -193.52 110.44 -184 105 C-176.4038307 100.62315959 -168.80851981 96.24508723 -161.21777344 91.85888672 C-155.81329351 88.73675393 -150.40649893 85.61863474 -145 82.5 C-143.92878906 81.88189453 -142.85757813 81.26378906 -141.75390625 80.62695312 C-136.31353925 77.48777626 -130.87237045 74.35000371 -125.4296875 71.21484375 C-114.97793801 65.19252671 -104.53700452 59.15330663 -94.125 53.0625 C-84.85436069 47.64041301 -75.54063301 42.29675988 -66.20953369 36.97976685 C-58.11291585 32.36515646 -50.04244289 27.70859246 -42 23 C-33.52619467 18.0453077 -25.04078333 13.11123869 -16.52978516 8.22070312 C-15.26653785 7.49403638 -14.00415696 6.76586122 -12.74267578 6.03613281 C-10.98969295 5.02255095 -9.23320686 4.01503521 -7.4765625 3.0078125 C-6.46674316 2.42660645 -5.45692383 1.84540039 -4.41650391 1.24658203 C-2 0 -2 0 0 0 Z " fill="#FC9800" transform="translate(255,18)"/>
<path d="M0 0 C7.13016574 5.04061614 13.34981017 11.06437124 19.48046875 17.25 C20.33755936 18.10754883 21.19464996 18.96509766 22.07771301 19.84863281 C23.87409669 21.64801532 25.66807216 23.44980503 27.4597168 25.25390625 C30.18549591 27.99798246 32.91923285 30.73393121 35.65429688 33.46875 C37.40932697 35.22869531 39.16389994 36.98909661 40.91796875 38.75 C41.72542038 39.55856445 42.53287201 40.36712891 43.36479187 41.20019531 C44.13281631 41.97459961 44.90084076 42.74900391 45.69213867 43.546875 C46.35702805 44.21557617 47.02191742 44.88427734 47.70695496 45.57324219 C49.64240015 47.62154767 51.49233532 49.70658134 53.33517456 51.8371582 C56.72662592 55.73449964 60.28207504 59.41750091 63.94506836 63.05859375 C64.59957977 63.71325119 65.25409119 64.36790863 65.92843628 65.04240417 C68.06320689 67.17648567 70.20148275 69.30701665 72.33984375 71.4375 C73.83221478 72.92800328 75.3243632 74.41872948 76.81629944 75.90966797 C80.72175413 79.81132554 84.63020379 83.7099692 88.53930664 87.60797119 C92.53649798 91.59488776 96.53081939 95.58467736 100.52539062 99.57421875 C108.34747042 107.38561077 116.17272048 115.19381853 124 123 C124.00364563 121.79667526 124.00729126 120.59335052 124.01104736 119.3535614 C124.0480815 107.98124775 124.10594616 96.60920278 124.18390274 85.23709393 C124.22331431 79.3913687 124.25553388 73.54579269 124.27099609 67.69995117 C124.28620414 62.052265 124.32072366 56.40498923 124.36830902 50.75748634 C124.38308003 48.60910432 124.39103854 46.4606637 124.39188385 44.31223106 C124.40321376 29.94777774 124.48122185 17.0012909 135 6 C144.11035292 -2.01711057 152.41998996 -4.39025088 164.42578125 -4.27734375 C173.83784386 -3.54700884 181.57550596 1.29120113 187.9453125 8.0703125 C196.76631551 18.6628977 196.43963854 29.57341153 196.40405273 42.67163086 C196.40976088 44.56804302 196.41672686 46.46445175 196.42485046 48.3608551 C196.44274733 53.49311114 196.44162006 58.62519587 196.43590808 63.75747371 C196.43281135 68.04915705 196.43891404 72.34080772 196.44494683 76.6324864 C196.45897891 86.76014569 196.45744158 96.88772061 196.44604492 107.01538086 C196.43456355 117.44860649 196.44864278 127.88157506 196.4754414 138.31476682 C196.49762198 147.28744784 196.50423049 156.2600483 196.49836498 165.23275477 C196.49500004 170.58515841 196.49737986 175.93739728 196.51461601 181.28977776 C196.53012074 186.32387794 196.52609041 191.35759821 196.50731087 196.39168358 C196.50363483 198.2338682 196.50670458 200.07608119 196.51719666 201.91823959 C196.58676126 215.14706444 195.40549833 225.94800401 186 236 C177.62378833 243.73906013 170.51450472 246.56217069 159.13989258 246.48583984 C139.53209026 245.70654079 126.60221276 227.75862484 113.71191406 214.88891602 C111.976535 213.15981178 110.24096983 211.4308943 108.50523376 209.70214844 C103.32715095 204.54316719 98.15326922 199.37998674 92.9802686 194.21591106 C91.02758784 192.26674837 89.07459393 190.31789961 87.12158431 188.36906644 C78.49740665 179.76332762 69.87457218 171.15624555 61.25575638 162.54513645 C59.1547261 160.44601559 57.05369032 158.34690024 54.95263672 156.24780273 C54.43052678 155.72617654 53.90841685 155.20455034 53.3704854 154.66711729 C44.90117172 146.2061149 36.42336483 137.7536761 27.94200447 129.30475117 C19.21271388 120.60857037 10.49100847 111.90484019 1.77666068 103.193685 C-3.10778284 98.31140116 -7.99543048 93.43242463 -12.89159393 88.56189156 C-17.49397161 83.98355386 -22.08599588 79.39499791 -26.67123222 74.79949188 C-28.35195171 73.11827742 -30.03607768 71.44046023 -31.72390175 69.7663784 C-34.03406533 67.47397165 -36.33143673 65.16943611 -38.62615967 62.86158752 C-39.29055927 62.20815717 -39.95495887 61.55472681 -40.6394918 60.88149554 C-48.97961625 52.42637658 -53.89542406 43.52000588 -54.3125 31.625 C-54.04424194 20.20036277 -49.50244842 11.07536016 -41.3125 3.1875 C-29.64402209 -6.2793783 -13.11610899 -6.85016937 0 0 Z " fill="#0D3B66" transform="translate(1293,149)"/>
<path d="M0 0 C4.15169597 1.33727219 7.72486566 2.82577019 11.484375 5.046875 C12.50273437 5.645 13.52109375 6.243125 14.5703125 6.859375 C16.14425781 7.79523437 16.14425781 7.79523437 17.75 8.75 C18.78382813 9.3584375 19.81765625 9.966875 20.8828125 10.59375 C23.92672317 12.38789382 26.96553607 14.18992079 30 16 C31.26703262 16.41138718 31.26703262 16.41138718 32.55966187 16.83108521 C35.89367038 18.1664774 37.67020803 19.23588376 40 22 C41.97557756 28.59263076 41.30089905 35.91142467 41.1953125 42.7109375 C41.19910094 44.76503741 41.20729059 46.81913352 41.21969604 48.87319946 C41.24048842 54.26946169 41.20159888 59.66369915 41.15020752 65.05969238 C41.10831237 70.56976726 41.12295259 76.07966142 41.1328125 81.58984375 C41.14382391 92.39380044 41.09177636 103.19646167 41 114 C41.69546432 114.38809845 42.39092865 114.7761969 43.10746765 115.17605591 C46.32616379 116.97304692 49.54394393 118.7716723 52.76171875 120.5703125 C53.85512573 121.18044189 54.94853271 121.79057129 56.07507324 122.41918945 C63.36566283 126.49631459 70.60704678 130.64933348 77.8125 134.875 C79.46173462 135.84070923 79.46173462 135.84070923 81.14428711 136.82592773 C82.0131958 137.33583252 82.88210449 137.8457373 83.77734375 138.37109375 C90.44976054 142.27354668 97.15980137 146.1093558 103.875 149.9375 C117.27665979 157.57926325 130.64133561 165.28310164 144 173 C152.58 177.95 161.16 182.9 170 188 C170 158.3 170 128.6 170 98 C174.48206864 99.49402288 177.57914601 100.74287119 181.51953125 103.08203125 C182.54240234 103.68466797 183.56527344 104.28730469 184.61914062 104.90820312 C185.67294922 105.53662109 186.72675781 106.16503906 187.8125 106.8125 C189.90183145 108.0490431 191.99166759 109.28473389 194.08203125 110.51953125 C195.00218018 111.06714111 195.9223291 111.61475098 196.87036133 112.17895508 C200.87969092 114.51186633 204.94507859 116.74726588 209 119 C209 198.53 209 278.06 209 360 C205.27432445 359.06858111 202.84116084 357.9456502 199.52734375 356.0859375 C198.46193359 355.48910156 197.39652344 354.89226562 196.29882812 354.27734375 C195.18958984 353.64957031 194.08035156 353.02179688 192.9375 352.375 C191.85533203 351.77042969 190.77316406 351.16585938 189.65820312 350.54296875 C183.51696682 347.08737208 183.51696682 347.08737208 181.92118835 346.070755 C179.91482318 344.87890674 179.91482318 344.87890674 177.1966095 344.03312683 C173.49586557 342.43738428 171.54364381 341.16079431 169 338 C166.83517302 330.51833329 167.58308941 322.26677914 167.70703125 314.56640625 C167.70510878 312.24469633 167.6983418 309.92298579 167.68693542 307.6013031 C167.66995684 301.50296833 167.71865426 295.40686834 167.78112793 289.30889893 C167.83327491 283.08159604 167.82318284 276.85442638 167.81835938 270.62695312 C167.81806015 258.41729734 167.88715664 246.20909771 168 234 C167.28686142 233.60175522 166.57372284 233.20351044 165.838974 232.79319763 C163.15304822 231.29273511 160.46755344 229.79150471 157.78233337 228.28977966 C156.06464459 227.32944804 154.3464755 226.36997567 152.6282959 225.41052246 C146.56972243 222.02149061 140.53334902 218.60399163 134.5625 215.0625 C133.51811012 214.44328926 133.51811012 214.44328926 132.45262146 213.81156921 C131.81856888 213.43547012 131.1845163 213.05937103 130.53125 212.671875 C124.90132145 209.33998092 119.2308083 206.07852327 113.5625 202.8125 C111.90166382 201.85549194 111.90166382 201.85549194 110.20727539 200.87915039 C107.93662932 199.57110523 105.66587642 198.26324552 103.39501953 196.95556641 C96.85833245 193.19036696 90.3250674 189.41923265 83.79174805 185.64819336 C78.75112985 182.73918938 73.70955136 179.83189852 68.66400146 176.93145752 C66.88250422 175.90724335 65.10135678 174.88242349 63.3203125 173.85742188 C61.08923375 172.57366625 58.85750427 171.29104061 56.625 170.00976562 C55.61179687 169.42646484 54.59859375 168.84316406 53.5546875 168.2421875 C52.67280762 167.7354248 51.79092773 167.22866211 50.88232422 166.70654297 C47.21581166 164.53570417 43.61329435 162.25830897 40 160 C40 193.99 40 227.98 40 263 C36.20354164 261.48141666 32.9299355 259.93901972 29.39453125 257.953125 C28.32783203 257.355 27.26113281 256.756875 26.16210938 256.140625 C24.50405273 255.20476562 24.50405273 255.20476562 22.8125 254.25 C21.72646484 253.6415625 20.64042969 253.033125 19.52148438 252.40625 C16.33936688 250.61738395 13.16143918 248.82522725 10 247 C9.18330998 246.76909479 8.36661997 246.53818958 7.52518177 246.30028725 C4.05782014 245.00384759 2.36684375 243.88506578 0 241 C-2.05750509 233.7368492 -1.258442 225.65961328 -1.13525391 218.19580078 C-1.13243302 215.82056294 -1.13401678 213.44531638 -1.13967896 211.07008362 C-1.14225246 205.29098362 -1.09890828 199.51354301 -1.03530236 193.73482223 C-0.9637574 187.00967186 -0.94884596 180.28475592 -0.93742065 173.55927823 C-0.91554728 161.56618679 -0.84903478 149.57377643 -0.75439453 137.58105469 C-0.66256976 125.93297732 -0.59180305 114.2850851 -0.54931641 102.63671875 C-0.54668917 101.91842916 -0.54406194 101.20013956 -0.54135509 100.46008362 C-0.52830448 96.85654742 -0.51566746 93.25300991 -0.50323606 89.64947152 C-0.39960931 59.76583718 -0.22277009 29.88299831 0 0 Z " fill="#161625" transform="translate(277,18)"/>
<path d="M0 0 C124.22200772 0 124.22200772 0 154 25 C154.84691406 25.70898438 155.69382812 26.41796875 156.56640625 27.1484375 C159.11604801 29.36720972 161.5709605 31.65008231 164 34 C164.75023437 34.72445312 165.50046875 35.44890625 166.2734375 36.1953125 C185.92280517 56.53413167 194.17196127 86.32970594 195 114 C195.0515625 115.17820312 195.103125 116.35640625 195.15625 117.5703125 C195.51670907 132.439249 193.50780442 147.35062524 189.8125 161.75 C189.65305908 162.45890381 189.49361816 163.16780762 189.3293457 163.89819336 C188.76953125 165.859375 188.76953125 165.859375 187 169 C180.04794615 171.22785621 172.70857857 172.16577443 165.5234375 173.3828125 C164.23942047 173.60194305 162.95540344 173.82107361 161.63247681 174.04684448 C158.92819449 174.50781518 156.22351544 174.96636778 153.51855469 175.42333984 C150.06347801 176.00735965 146.60970854 176.59875075 143.1562252 177.19211006 C139.8418991 177.76023181 136.52635688 178.3211061 133.2109375 178.8828125 C131.97644867 179.09527618 130.74195984 179.30773987 129.47006226 179.52664185 C128.31511261 179.72039398 127.16016296 179.91414612 125.97021484 180.11376953 C124.95953949 180.28538605 123.94886414 180.45700256 122.90756226 180.63381958 C119.90748114 181.01165189 117.02048968 181.06368936 114 181 C116.58707866 178.30221302 119.1975864 176.08407144 122.25 173.9375 C133.78640472 165.01525595 141.8069629 149.63063592 143.78466797 135.22753906 C145.87165597 113.63833439 144.27143493 92.02171126 130.86328125 74.15234375 C117.11194892 58.24111628 99.46527421 51.55815928 79 49 C64.15 48.505 64.15 48.505 49 48 C49 95.19 49 142.38 49 191 C50.32 191.33 51.64 191.66 53 192 C46.41754695 193.14635703 39.83376998 194.28486048 33.24902344 195.41796875 C31.01010552 195.80419019 28.77149437 196.19219443 26.53320312 196.58203125 C23.31199273 197.14273928 20.08972594 197.69698236 16.8671875 198.25 C15.87008759 198.42499023 14.87298767 198.59998047 13.84567261 198.78027344 C12.90515045 198.94043945 11.9646283 199.10060547 10.99560547 199.265625 C9.76316605 199.47880371 9.76316605 199.47880371 8.50582886 199.69628906 C5.68935714 200.03765047 2.8370831 200 0 200 C0 134 0 68 0 0 Z " fill="#FF9900" transform="translate(517,136)"/>
<path d="M0 0 C5.08260711 1.01652142 5.61488786 1.19304802 8.33325195 5.14941406 C8.71827881 5.73948242 9.10330566 6.32955078 9.5 6.9375 C10.37782544 8.22339474 11.25678785 9.50851385 12.13671875 10.79296875 C12.59997559 11.47794434 13.06323242 12.16291992 13.54052734 12.86865234 C16.0595403 16.54730459 18.69145704 20.1437117 21.3125 23.75 C22.42354462 25.28619258 23.53421809 26.82265366 24.64453125 28.359375 C25.19963379 29.12701172 25.75473633 29.89464844 26.32666016 30.68554688 C29.05263139 34.45593019 31.77621534 38.22803694 34.5 42 C35.58332144 43.50000859 36.66665479 45.00000858 37.75 46.5 C44.25 55.5 44.25 55.5 45.87475586 57.74975586 C46.95878416 59.2506555 48.04293142 60.75146922 49.12719727 62.25219727 C51.82587655 65.98773967 54.52251312 69.72472254 57.21484375 73.46484375 C62.76804624 81.17462973 68.35437205 88.85757631 74 96.5 C79.63574256 104.12904194 85.21353697 111.79755737 90.75390625 119.49609375 C93.00227339 122.62023449 95.26124189 125.73635628 97.52734375 128.84765625 C98.10863037 129.64743896 98.68991699 130.44722168 99.28881836 131.27124023 C100.39045545 132.78656099 101.49398564 134.30050821 102.59985352 135.81274414 C103.10315186 136.5061792 103.6064502 137.19961426 104.125 137.9140625 C104.56070313 138.5117041 104.99640625 139.1093457 105.4453125 139.72509766 C107.73921639 143.08166117 109.86307842 146.54202099 112 150 C106.68422618 150.9624478 101.36804999 151.92263256 96.05151367 152.88085938 C94.24867118 153.20610701 92.44593378 153.53193781 90.64331055 153.85839844 C80.44655294 155.7046317 70.25559049 157.50686691 60 159 C52.25 148.375 52.25 148.375 50 145 C49.67 150.28 49.34 155.56 49 161 C42.34345711 162.14142521 35.68655181 163.28070382 29.02929688 164.41796875 C26.76324458 164.80539479 24.49729359 165.19341382 22.23144531 165.58203125 C18.98008058 166.13957061 15.72836099 166.69499684 12.4765625 167.25 C11.45881744 167.42499023 10.44107239 167.59998047 9.39248657 167.78027344 C8.45166229 167.94043945 7.51083801 168.10060547 6.54150391 168.265625 C5.29574081 168.47880371 5.29574081 168.47880371 4.02481079 168.69628906 C2 169 2 169 0 169 C0 113.23 0 57.46 0 0 Z " fill="#FF9900" transform="translate(742,130)"/>
<path d="M0 0 C0.83998535 0.43981201 1.6799707 0.87962402 2.54541016 1.33276367 C3.86472534 2.01677246 3.86472534 2.01677246 5.21069336 2.71459961 C6.16290771 3.2434375 7.11512207 3.77227539 8.09619141 4.31713867 C9.71630127 5.21565552 9.71630127 5.21565552 11.36914062 6.13232422 C12.52043457 6.77596924 13.67172852 7.41961426 14.85791016 8.08276367 C15.74255951 8.57614731 15.74255951 8.57614731 16.64508057 9.07949829 C25.44446047 13.9886869 34.20356394 18.96580449 42.92041016 24.02026367 C43.9172583 24.59550781 44.91410645 25.17075195 45.94116211 25.76342773 C50.39881935 28.3658862 54.64303644 30.9202624 58.54541016 34.33276367 C51.91263882 38.93496788 45.05277427 42.94386571 37.98291016 46.83276367 C29.47105098 51.55682351 21.00664903 56.34778006 12.60791016 61.27026367 C4.31153707 66.13201051 -3.99803028 70.96901538 -12.32958984 75.77026367 C-13.40466797 76.3898999 -14.47974609 77.00953613 -15.58740234 77.64794922 C-17.77203943 78.9068235 -19.95677294 80.16553043 -22.14160156 81.42407227 C-26.61854225 84.00334436 -31.09451705 86.58428479 -35.56933594 89.16723633 C-37.76210945 90.43134368 -39.95641661 91.69279491 -42.15234375 92.95141602 C-47.17569562 95.83497843 -52.16812913 98.75057266 -57.09912109 101.78979492 C-57.96674072 102.31669922 -58.83436035 102.84360352 -59.72827148 103.38647461 C-61.32777223 104.36102993 -62.91769437 105.35156545 -64.49536133 106.36108398 C-65.19862549 106.78615234 -65.90188965 107.2112207 -66.62646484 107.64916992 C-67.22555664 108.02501221 -67.82464844 108.40085449 -68.44189453 108.78808594 C-72.33786854 109.84241854 -75.68014139 107.73116741 -79.10986328 105.96679688 C-80.44839355 105.18308716 -80.44839355 105.18308716 -81.81396484 104.38354492 C-83.34621704 103.4926416 -83.34621704 103.4926416 -84.90942383 102.58374023 C-86.54053101 101.62419434 -86.54053101 101.62419434 -88.20458984 100.64526367 C-89.93019445 99.63824037 -91.65580607 98.63122885 -93.38182068 97.62490845 C-94.5758988 96.92834837 -95.76954829 96.23105303 -96.96278381 95.53305054 C-101.24068254 93.03218035 -105.53616691 90.56373612 -109.84130859 88.11010742 C-111.03504986 87.42815856 -112.22873558 86.74611247 -113.42236328 86.06396484 C-115.70115619 84.76278243 -117.98170447 83.4646685 -120.26416016 82.16992188 C-121.81055176 81.28373169 -121.81055176 81.28373169 -123.38818359 80.37963867 C-124.29624756 79.86240234 -125.20431152 79.34516602 -126.13989258 78.81225586 C-128.22809781 77.47753129 -129.80037189 76.16342699 -131.45458984 74.33276367 C-125.99701149 70.40713714 -120.27736297 67.0610931 -114.39208984 63.83276367 C-107.22242547 59.89877906 -100.13383344 55.84513122 -93.07958984 51.70776367 C-84.27704931 46.54897014 -75.44317714 41.44828822 -66.57958984 36.39526367 C-57.44355897 31.18508956 -48.31629445 25.96043367 -39.20458984 20.70776367 C-38.15005615 20.10270996 -37.09552246 19.49765625 -36.0090332 18.87426758 C-30.52134268 15.71759036 -25.07449755 12.50808398 -19.66943359 9.21166992 C-18.5734082 8.55054199 -17.47738281 7.88941406 -16.34814453 7.20825195 C-14.25748981 5.94449798 -12.17556774 4.66614852 -10.10400391 3.37133789 C-8.70553223 2.53046631 -8.70553223 2.53046631 -7.27880859 1.67260742 C-6.46500732 1.17108154 -5.65120605 0.66955566 -4.81274414 0.15283203 C-2.45458984 -0.66723633 -2.45458984 -0.66723633 0 0 Z " fill="#0E3A65" transform="translate(266.45458984375,324.667236328125)"/>
<path d="M0 0 C1.32 0 2.64 0 4 0 C4 42.57 4 85.14 4 129 C-3.87512161 131.25003474 -3.87512161 131.25003474 -7.66267395 131.88589478 C-8.51923584 132.03168472 -9.37579773 132.17747467 -10.25831604 132.3276825 C-11.17443161 132.4794545 -12.09054718 132.6312265 -13.03442383 132.78759766 C-14.01734406 132.95370041 -15.00026428 133.11980316 -16.01296997 133.29093933 C-19.24368431 133.83586144 -22.4753243 134.37506104 -25.70703125 134.9140625 C-27.95673107 135.29204617 -30.20637941 135.67033633 -32.45597839 136.04891968 C-37.16026733 136.83975468 -41.86498876 137.62794553 -46.57006836 138.4140625 C-52.61141184 139.42350398 -58.65190991 140.43789963 -64.69212818 141.45405006 C-69.33199682 142.23435098 -73.97216095 143.0128818 -78.61243248 143.79078293 C-80.84091848 144.16442698 -83.06934395 144.53843222 -85.29770851 144.91279984 C-88.40237683 145.43394508 -91.50740179 145.95290718 -94.61254883 146.47119141 C-96.00190392 146.7049221 -96.00190392 146.7049221 -97.41932678 146.94337463 C-98.26178955 147.08352493 -99.10425232 147.22367523 -99.97224426 147.36807251 C-100.70611768 147.49083872 -101.43999109 147.61360493 -102.1961031 147.74009132 C-104 148 -104 148 -106 148 C-104.436656 143.18122202 -101.68884685 139.69456346 -98.625 135.75 C-94.32368909 130.1167583 -90.12732542 124.43131354 -86.0625 118.625 C-76.89810613 105.55825149 -67.50615625 92.66313764 -58.0222168 79.8269043 C-53.8073457 74.11508609 -49.65931543 68.35999701 -45.546875 62.57421875 C-42.61457267 58.45110426 -39.65151724 54.35034806 -36.6875 50.25 C-36.13956787 49.49195068 -35.59163574 48.73390137 -35.02709961 47.95288086 C-33.90927547 46.40666903 -32.79135496 44.86052687 -31.67333984 43.31445312 C-29.48651719 40.2897845 -27.30124397 37.26399872 -25.11621094 34.23803711 C-24.04285691 32.75171741 -22.96929082 31.26555083 -21.89550781 29.77954102 C-19.07088462 25.87020428 -16.24978475 21.95838516 -13.43359375 18.04296875 C-12.55574219 16.82383789 -12.55574219 16.82383789 -11.66015625 15.58007812 C-10.54320723 14.02876004 -9.42725953 12.47672031 -8.3125 10.92382812 C-7.32173152 9.54860114 -6.32583159 8.17704974 -5.32373047 6.81005859 C-4.15769824 5.21563532 -3.01630189 3.60325738 -1.87890625 1.98828125 C-1.25886719 1.33214844 -0.63882813 0.67601562 0 0 Z " fill="#FF9900" transform="translate(973,130)"/>
<path d="M0 0 C1.78540039 0.09057617 1.78540039 0.09057617 4 1 C5.34846572 3.19195203 6.39791833 5.21507545 7.43359375 7.55078125 C7.74761642 8.22765488 8.0616391 8.9045285 8.38517761 9.60191345 C9.41629439 11.83276357 10.42673354 14.07236537 11.4375 16.3125 C12.15339495 17.87075663 12.87069495 19.42836847 13.58935547 20.98535156 C15.04697714 24.14851559 16.49685185 27.31504356 17.93994141 30.48486328 C20.28441924 35.63157944 22.66880922 40.75907107 25.05786133 45.88525391 C26.62512211 49.25026218 28.18406288 52.6190344 29.7421875 55.98828125 C31.7751277 60.37624267 33.82407322 64.75613713 35.88986206 69.12869263 C37.19586524 71.89310682 38.49812819 74.65927732 39.80047607 77.42541504 C40.42710146 78.75326312 41.05568322 80.08018996 41.68634033 81.40612793 C42.56144871 83.24628002 43.42931415 85.08987127 44.296875 86.93359375 C44.79541992 87.98603271 45.29396484 89.03847168 45.80761719 90.12280273 C46.91235357 92.78851082 47.48224805 95.17663273 48 98 C37.3303248 100.65036427 26.58590829 102.53851386 15.75 104.35546875 C13.91963998 104.66484119 12.08931839 104.97444109 10.2590332 105.28425598 C6.45062113 105.92798237 2.6417488 106.56889139 -1.16748047 107.20776367 C-6.04504704 108.02606354 -10.92134878 108.85164526 -15.79733276 109.67931652 C-19.56462402 110.31795036 -23.33256262 110.95269462 -27.10070801 111.58626747 C-28.89982568 111.88926244 -30.69873808 112.19347901 -32.49743652 112.49895287 C-35.00415394 112.92408647 -37.51169858 113.34395383 -40.01953125 113.76245117 C-41.12609825 113.95174698 -41.12609825 113.95174698 -42.25502014 114.14486694 C-45.87441762 114.74310415 -49.32993568 115.14184729 -53 115 C-47.7225014 103.10059937 -42.286007 91.28081805 -36.75 79.5 C-36.2666922 78.47128281 -36.2666922 78.47128281 -35.77362061 77.42178345 C-34.46335121 74.63297669 -33.15301181 71.84420284 -31.8425293 69.05549622 C-21.06441738 46.11216357 -10.51701236 23.06380201 0 0 Z " fill="#FF9900" transform="translate(1109,130)"/>
<path d="M0 0 C6.69257553 5.42566823 10.8611432 13.13365784 12.75 21.4375 C13.68501474 32.1031914 13.34891593 41.30260036 6.76171875 50.08984375 C0.67102887 57.2535049 -5.79873313 62.76066233 -15.25 64.4375 C-27.99269716 65.29932493 -37.22001319 63.49933846 -47.25 55.4375 C-53.92752129 49.11611318 -57.83380266 41.61642968 -58.453125 32.421875 C-58.62866114 20.30988161 -55.81447454 11.32219281 -47.328125 2.421875 C-34.16101481 -9.72452897 -14.69650363 -9.71320643 0 0 Z " fill="#ED1C24" transform="translate(1297.25,330.5625)"/>
</svg>
